<?xml version="1.0" encoding="utf-8"?>
<!-- Generator: Adobe Illustrator 23.0.0, SVG Export Plug-In . SVG Version: 6.00 Build 0) -->
<svg xmlns="http://www.w3.org/2000/svg" xmlns:xlink="http://www.w3.org/1999/xlink" viewBox="0 0 24 24" width="24px" height="24px" style="background: none;">
  <g id="Sharp_3_">
    <path fill="white" d="M23,13h-1c-0.6,0-1-0.4-1-1v0c0-0.6,0.4-1,1-1h1c0.6,0,1,0.4,1,1v0C24,12.6,23.6,13,23,13z"/>
    <path fill="white" d="M2,13H1c-0.6,0-1-0.4-1-1v0c0-0.6,0.4-1,1-1h1c0.6,0,1,0.4,1,1v0C3,12.6,2.6,13,2,13z"/>
    <path fill="white" d="M12,3L12,3c-0.6,0-1-0.4-1-1V1c0-0.6,0.4-1,1-1h0c0.6,0,1,0.4,1,1v1C13,2.6,12.6,3,12,3z"/>
    <path fill="white" d="M12,24L12,24c-0.6,0-1-0.4-1-1v-1c0-0.6,0.4-1,1-1h0c0.6,0,1,0.4,1,1v1C13,23.6,12.6,24,12,24z"/>
    <path fill="white" d="M19.1,20.5l-0.7-0.7c-0.4-0.4-0.4-1,0-1.4l0,0c0.4-0.4,1-0.4,1.4,0l0.7,0.7c0.4,0.4,0.4,1,0,1.4l0,0C20.1,20.9,19.5,20.9,19.1,20.5z"/>
    <path fill="white" d="M4.2,5.6L3.5,4.9c-0.4-0.4-0.4-1,0-1.4l0,0c0.4-0.4,1-0.4,1.4,0l0.7,0.7c0.4,0.4,0.4,1,0,1.4l0,0C5.2,6,4.6,6,4.2,5.6z"/>
    <path fill="white" d="M18.4,5.6L18.4,5.6c-0.4-0.4-0.4-1,0-1.4l0.7-0.7c0.4-0.4,1-0.4,1.4,0v0c0.4,0.4,0.4,1,0,1.4l-0.7,0.7C19.4,6,18.8,6,18.4,5.6z"/>
    <path fill="white" d="M3.5,20.5L3.5,20.5c-0.4-0.4-0.4-1,0-1.4l0.7-0.7c0.4-0.4,1-0.4,1.4,0h0c0.4,0.4,0.4,1,0,1.4l-0.7,0.7C4.5,20.9,3.9,20.9,3.5,20.5z"/>
    <circle cx="12" cy="12" r="7" fill="white"/>
  </g>
</svg>
